<?xml version="1.0" encoding="UTF-8"?>
<svg xmlns="http://www.w3.org/2000/svg" id="b" viewBox="0 0 219.7 57.5">
  <defs>
    <style>.d{fill:#649385;}.e{fill:#4f6a83;}</style>
  </defs>
  <g id="c">
    <path class="e" d="M99.4,26.8c-2,0-3.7-.4-5.2-1.3s-2.6-2.2-3.4-3.8c-.8-1.6-1.2-3.6-1.2-5.8s.4-4.2,1.2-5.8,1.9-2.9,3.4-3.8,3.2-1.3,5.2-1.3,3.8.4,5.2,1.3,2.6,2.1,3.4,3.8c.8,1.6,1.2,3.6,1.2,5.8s-.4,4.2-1.2,5.8c-.8,1.6-1.9,2.9-3.4,3.8s-3.2,1.3-5.2,1.3ZM99.4,24.6c2.3,0,4-.8,5.3-2.3,1.3-1.5,1.9-3.7,1.9-6.4s-.6-4.9-1.9-6.4c-1.3-1.5-3-2.3-5.3-2.3s-4,.8-5.2,2.3c-1.3,1.5-1.9,3.7-1.9,6.4s.6,4.9,1.9,6.4,3,2.3,5.2,2.3Z"></path>
    <path class="e" d="M131.4,26.8c-2,0-3.7-.4-5.2-1.3-1.5-.9-2.6-2.2-3.4-3.8-.8-1.6-1.2-3.6-1.2-5.8s.4-4.2,1.2-5.8c.8-1.6,1.9-2.9,3.4-3.8s3.2-1.3,5.2-1.3,3.8.4,5.2,1.3,2.6,2.1,3.4,3.8c.8,1.6,1.2,3.6,1.2,5.8s-.4,4.2-1.2,5.8c-.8,1.6-1.9,2.9-3.4,3.8s-3.2,1.3-5.2,1.3ZM131.4,24.6c2.3,0,4-.8,5.3-2.3,1.3-1.5,1.9-3.7,1.9-6.4s-.6-4.9-1.9-6.4c-1.3-1.5-3-2.3-5.3-2.3s-4,.8-5.2,2.3c-1.3,1.5-1.9,3.7-1.9,6.4s.6,4.9,1.9,6.4,3,2.3,5.2,2.3Z"></path>
    <path class="e" d="M124.3,26.3c-.8-.5-1.5-1.2-2.2-2h-8.2V5.2h-2.5v21.3h13.3c-.1,0-.3-.1-.4-.2Z"></path>
    <path class="e" d="M156,19.5c-.7-1.3-1.5-2-2.4-2.4,1.6-.3,2.8-1,3.6-2,.9-1,1.3-2.3,1.3-3.9s-.6-3.5-1.8-4.6c-1.2-1.1-3-1.6-5.3-1.6h-8.4v21.3h2.5v-9h3.9c1,0,1.8.2,2.4.5.6.3,1.1.9,1.6,1.7l3.7,6.8h0l1.2-2.8-2.3-4.2ZM151,15.5h-5.6V7.2h5.6c3.3,0,5,1.4,5,4.1s-1.7,4.2-5,4.2Z"></path>
    <polygon class="e" points="159.6 26.5 159.7 26.5 159.6 26.4 159.6 26.5"></polygon>
    <path class="e" d="M209.9,26.8c-2,0-3.7-.4-5.2-1.3s-2.6-2.2-3.4-3.8c-.8-1.6-1.2-3.6-1.2-5.8s.4-4.2,1.2-5.8c.8-1.6,1.9-2.9,3.4-3.8s3.2-1.3,5.2-1.3,3.8.4,5.2,1.3c1.5.9,2.6,2.1,3.4,3.8.8,1.6,1.2,3.6,1.2,5.8s-.4,4.2-1.2,5.8c-.8,1.6-1.9,2.9-3.4,3.8-1.5.9-3.2,1.3-5.2,1.3ZM209.9,24.6c2.3,0,4-.8,5.3-2.3,1.3-1.5,1.9-3.7,1.9-6.4s-.6-4.9-1.9-6.4c-1.3-1.5-3-2.3-5.3-2.3s-4,.8-5.2,2.3c-1.3,1.5-1.9,3.7-1.9,6.4s.6,4.9,1.9,6.4,3,2.3,5.2,2.3Z"></path>
    <path class="e" d="M88.5,22.2c-.8.7-1.7,1.3-2.6,1.7-1,.4-2.1.6-3.3.6-2.4,0-4.2-.8-5.5-2.3s-1.9-3.6-1.9-6.4.6-4.9,1.9-6.4,3.1-2.3,5.5-2.3,2.3.2,3.3.6c.9.4,1.8.9,2.6,1.7,0,0,0,0,0,0,.4-.6.8-1.2,1.2-1.7h0c-.9-.9-1.9-1.6-3.2-2.1-1.2-.5-2.6-.7-4.1-.7-2.1,0-3.9.4-5.4,1.3-1.5.9-2.6,2.1-3.4,3.8-.8,1.6-1.2,3.6-1.2,5.8s.4,4.2,1.2,5.8c.8,1.6,1.9,2.9,3.4,3.8,1.5.9,3.3,1.3,5.4,1.3s2.8-.2,4.1-.7c1.2-.5,2.3-1.1,3.2-2h0c-.5-.6-.8-1.2-1.2-1.8Z"></path>
    <path class="e" d="M195.7,7.9c-1.9-1.8-4.5-2.7-8-2.7h-7.2v18.4l1.3,2.9h5.9c3.4,0,6.1-.9,8-2.8,1.9-1.8,2.8-4.5,2.8-7.9s-.9-6.1-2.8-7.9ZM187.5,24.4h-4.5V7.3h4.5c5.6,0,8.3,2.8,8.3,8.5s-2.8,8.6-8.3,8.6Z"></path>
    <path class="e" d="M159.3,26.5l9.4-21.3h2.1l9.4,21.3h-2.6l-2.4-5.4h-11.1l-2.3,5.4h-2.6ZM169.7,8.1l-4.6,10.9h9.3l-4.6-10.9h0Z"></path>
    <path class="d" d="M72.5,52.3v-21.3h10.3c2.3,0,4.1.5,5.3,1.5s1.9,2.3,1.9,4-.3,2.1-.8,2.9c-.6.8-1.3,1.4-2.3,1.8,1.2.4,2.1,1,2.8,1.8.6.9,1,1.9,1,3.2,0,1.9-.7,3.4-2,4.4-1.3,1.1-3.2,1.6-5.5,1.6h-10.6ZM77.8,39.4h4c1,0,1.7-.2,2.2-.5s.7-.9.7-1.7-.2-1.3-.7-1.6-1.2-.5-2.2-.5h-4v4.4ZM77.8,48.2h4.5c1,0,1.8-.2,2.3-.6s.7-1,.7-1.8-.2-1.4-.7-1.8-1.2-.6-2.3-.6h-4.5v4.7Z"></path>
    <path class="d" d="M110.6,50.3l-2.2-4.1c-.7-1.3-1.6-2-2.7-2.3,1.5-.4,2.7-1.2,3.5-2.3.8-1.1,1.2-2.4,1.2-4s-.7-3.7-2-4.9c-1.3-1.2-3.2-1.8-5.6-1.8h-10.3v21.3h5.6v-8h1.7c.5,0,.9,0,1.3.3.4.2.7.5.9.9l3.7,6.8h4.1l.9-2ZM101.8,40.4h-3.7v-5.2h3.7c2.2,0,3.3.9,3.3,2.6s-1.1,2.6-3.3,2.6Z"></path>
    <path class="d" d="M153.9,52.3v-21.3h15.1v4.3h-9.7v4.1h9v4.3h-9v4.4h9.7v4.3h-15.1Z"></path>
    <path class="d" d="M151,45.9c-.9.6-1.7,1.1-2.6,1.4-.9.3-1.8.5-2.7.5-1.9,0-3.3-.5-4.2-1.6s-1.4-2.6-1.4-4.6.5-3.5,1.4-4.6,2.4-1.6,4.2-1.6,1.8.2,2.7.5c.9.3,1.7.8,2.6,1.4v-5.4c-.4-.2-.9-.4-1.4-.6-1.3-.4-2.7-.6-4.1-.6-2.4,0-4.4.5-6.1,1.4-1.7.9-3,2.2-3.9,3.8-.9,1.6-1.3,3.6-1.3,5.8s.4,4.2,1.3,5.8c.9,1.7,2.2,2.9,3.9,3.8,1.7.9,3.7,1.4,6.1,1.4s2.8-.2,4.1-.6c.5-.2,1-.4,1.4-.6v-5.4Z"></path>
    <path class="d" d="M111.6,52.3l10-21.3h4.4l10,21.3h-5.6l-1.8-4.3h-9.5l-1.8,4.3h-5.6ZM123.7,36.8l-2.9,6.9h5.9l-2.9-6.9h0Z"></path>
    <path class="d" d="M187.5,45.6c0-3.2-1.9-5.2-5.7-6l-3.5-.8c-.9-.2-1.6-.4-2-.7-.3-.2-.5-.6-.5-1,0-.6.3-1,.9-1.4.6-.4,1.4-.6,2.5-.6,0,0,0,0,.1,0,1.3,0,2.5.2,3.8.5,1.3.4,2.3.9,3.3,1.5v-5.2c-.7-.3-1.4-.6-2.2-.8-1.5-.4-3.1-.6-4.8-.6s0,0,0,0h0c-.3,0-.6,0-.8,0-1.5,0-2.8.3-3.9.8-1.3.6-2.4,1.4-3.1,2.4-.7,1-1.1,2.2-1.1,3.6s0,0,0,0c0,0,0,0,0,0,0,3.2,1.9,5.2,5.7,6l3.5.8c.9.2,1.6.4,2,.7.3.2.5.6.5,1,0,.6-.3,1-.9,1.4-.6.4-1.4.6-2.5.6,0,0,0,0-.1,0-1.3,0-2.5-.2-3.8-.5-1.3-.4-2.3-.9-3.3-1.5v5.2c.7.3,1.4.6,2.2.8,1.5.4,3.1.6,4.8.6s0,0,0,0,0,0,0,0c.3,0,.6,0,.8,0,1.5,0,2.8-.3,3.9-.8,1.3-.6,2.4-1.4,3.1-2.4.7-1,1.1-2.2,1.1-3.6s0,0,0,0c0,0,0,0,0,0Z"></path>
    <polygon class="e" points="17.4 33.2 28.8 21.9 40.2 33.4 46.7 33.4 28.8 15.4 11 33.2 17.4 33.2"></polygon>
    <polygon class="e" points="12.8 28.3 14.8 26.4 10.9 22.4 0 33.3 3.9 33.3 10.9 26.4 12.8 28.3"></polygon>
    <polygon class="e" points="44.9 28.3 42.9 26.4 46.8 22.4 57.7 33.3 53.7 33.3 46.8 26.4 44.9 28.3"></polygon>
    <path class="e" d="M28.9,11c.4,0,.9,0,1.3.1V0h-2.4v11.1c.4,0,.8-.1,1.2-.1Z"></path>
    <path class="e" d="M33.7,13.8l8-8-1.7-1.7-7.9,7.9c.7.5,1.2,1.1,1.6,1.8Z"></path>
    <path class="e" d="M34.3,15.3c0,.4.1.8.1,1.2s0,.8-.1,1.2h11.3v-2.4h-11.3Z"></path>
    <path class="e" d="M25.8,12l-7.9-7.9-1.7,1.7,7.9,7.9c.4-.7,1-1.3,1.6-1.8Z"></path>
    <path class="e" d="M23.4,16.5c0-.4,0-.8.1-1.2h-11.4v2.4h11.4c0-.4-.1-.8-.1-1.2Z"></path>
    <path class="d" d="M51.4,39c-5.8,7.8-13.9,12.3-22.4,12.3s-16.6-4.5-22.4-12.3H.2c6.7,11.6,17.4,18.5,28.7,18.5s22-6.9,28.7-18.5h-6.3Z"></path>
  </g>
</svg>
