<svg width="561" height="232" viewBox="0 0 561 232" fill="none" xmlns="http://www.w3.org/2000/svg">
<path d="M18.646 182.077H202.871V51.2119H18.646V182.077Z" fill="#FEFEFE"/>
<path d="M111.016 179.156H110.758C72.3492 179.07 38.7522 166.181 18.7314 144.699V190.154C18.7314 198.661 26.1211 205.535 35.1433 205.535H186.459C195.567 205.535 202.871 198.661 202.871 190.154V145.301C182.592 166.524 149.167 179.156 111.016 179.156Z" fill="#005596"/>
<path d="M93.917 104.658H115.57L104.658 76.0444L93.917 104.658Z" fill="#00A4D8"/>
<path d="M144.957 135.076H127.6L120.726 117.547H89.1053L85.0667 128.373L76.4741 107.837L96.409 58.0001H113.336L144.957 135.076ZM202.871 69.772V41.5023C202.871 32.9957 195.482 26.1216 186.459 26.1216H35.0578C25.9497 26.1216 18.646 32.9957 18.646 41.5023V96.3231L33.9408 58.086H50.8682L82.489 135.076H65.1319L58.2578 117.547H26.6371L21.8253 130.436C38.409 153.464 71.7482 167.556 110.759 167.642H111.016C152.261 167.642 187.147 152.003 202.871 126.569V119.695C195.396 129.233 183.882 135.333 170.821 135.333C162.142 135.333 154.065 132.584 147.449 127.944L130.779 87.9023C134.045 68.6549 150.714 54.0475 170.821 54.0475C183.882 54.1334 195.396 60.2342 202.871 69.772Z" fill="#00A4D8"/>
<path d="M146.59 94.7765C146.59 108.181 157.417 119.008 170.821 119.008C184.226 119.008 195.052 108.181 195.052 94.7765C195.052 81.3721 184.226 70.5454 170.821 70.5454C157.417 70.4595 146.59 81.3721 146.59 94.7765ZM31.5352 104.658H53.1026L42.19 76.1306L31.5352 104.658Z" fill="#00A4D8"/>
<path d="M258.551 51.5555H258.465L252.45 72.0918H264.738L258.551 51.5555ZM255.544 47.0874H261.816L274.362 85.5822H268.862L266.113 76.3881H251.247L248.326 85.5822H243.342L255.544 47.0874ZM290.859 85.4963V66.8503C290.859 64.1007 290.086 61.6089 286.563 61.6089C285.188 61.6089 283.384 62.3822 282.782 63.4133C282.009 64.7022 281.751 66.3348 281.751 67.3659V85.4963H277.369V64.1867C277.369 62.2963 277.283 60.4918 277.111 58.6015H281.751V61.9526H281.837C283.126 59.0311 285.446 58.0859 288.539 58.0859C290.945 58.0859 293.781 59.117 294.812 61.523C296.273 58.6874 298.764 58.0859 301.17 58.0859C304.006 58.0859 308.56 58.6874 308.56 65.0459V85.4963H304.178V66.8503C304.178 64.1007 303.404 61.6089 299.882 61.6089C298.249 61.6089 297.733 61.6948 296.616 62.64C295.327 63.6711 295.156 66.3348 295.156 67.3659V85.4963H290.859ZM329.526 70.2015C329.526 62.3822 327.378 61.437 324.113 61.437C321.363 61.437 319.043 62.8118 318.957 70.2015H329.526ZM319.043 73.4667C319.043 80.9422 321.105 82.4889 324.456 82.4889C327.464 82.4889 329.01 80.083 329.182 77.3333H333.994C333.908 83.2622 330.299 86.0118 324.628 86.0118C318.957 86.0118 314.403 84.2933 314.403 72.4355C314.403 64.5303 315.348 58.0859 324.628 58.0859C332.276 58.0859 334.252 62.2963 334.252 71.2326V73.5526H319.043V73.4667ZM344.563 62.64H344.649C346.453 58.5155 348.687 58.0859 352.984 58.0859V62.64C352.21 62.5541 351.437 62.3822 350.664 62.3822C345.852 62.3822 344.563 66.077 344.563 69.6859V85.5822H340.181V58.6874H344.563V62.64ZM357.538 85.4963H361.92V58.6015H357.538V85.4963ZM357.28 51.7274H362.178V47.0015H357.28V51.7274ZM380.996 67.28C381.082 62.8978 378.933 61.6948 377.301 61.6948C373.95 61.6948 371.63 63.3274 371.63 70.6311C371.63 79.3956 372.747 82.4889 377.301 82.4889C378.332 82.4889 381.339 81.4578 381.167 76.56H385.722C385.893 84.1215 380.222 86.0118 377.215 86.0118C371.544 86.0118 366.99 84.2933 366.99 72.4355C366.99 64.5303 367.935 58.0859 377.215 58.0859C382.628 58.0859 385.722 61.2652 385.464 67.28H380.996ZM394.916 77.5052C394.916 80.083 396.204 82.4889 399.126 82.4889C401.79 82.4889 405.055 80.8563 404.625 72.1778C400.501 72.1778 394.916 71.8341 394.916 77.5052ZM404.711 81.6296C403.422 84.723 401.274 86.0118 397.923 86.0118C392.252 86.0118 390.533 82.317 390.533 77.1615C390.533 68.9985 398.524 68.6548 404.625 68.8267C404.711 65.2178 404.797 61.3511 400.071 61.3511C397.15 61.3511 395.603 63.3274 395.861 66.163H391.135C391.307 60.1481 394.572 58.0859 400.243 58.0859C407.203 58.0859 409.007 61.6948 409.007 66.163V79.1378C409.007 81.2859 409.179 83.4341 409.523 85.4963H404.711V81.6296ZM430.833 85.4963V66.8503C430.833 63.9289 429.802 61.6089 426.107 61.6089C421.295 61.6089 420.607 65.9052 420.607 69.5141V85.4104H416.225V64.1007C416.225 62.2104 416.139 60.4059 415.967 58.5155H420.607V61.9526H420.779C422.498 58.9452 424.474 57.9141 427.997 57.9141C433.754 57.9141 435.215 61.3511 435.215 66.6785V85.3244H430.833V85.4963ZM258.551 101.221H258.465L252.45 121.757H264.738L258.551 101.221ZM255.544 96.6667H261.816L274.362 135.161H268.862L266.113 125.967H251.247L248.326 135.161H243.342L255.544 96.6667ZM285.532 135.677C279.689 135.677 276.08 133.099 276.252 126.913H281.236C281.236 128.459 281.322 132.068 285.704 132.068C288.282 132.068 290.344 130.693 290.344 127.944C290.344 123.132 276.939 123.046 276.939 114.969C276.939 112.133 278.658 107.579 286.219 107.579C291.031 107.579 295.156 109.899 294.726 115.227H289.914C290 112.391 288.453 110.93 285.704 110.93C283.384 110.93 281.579 112.219 281.579 114.539C281.579 119.265 294.984 119.179 294.984 127.342C294.898 133.357 290.859 135.677 285.532 135.677ZM307.873 135.677C302.03 135.677 298.421 133.099 298.593 126.913H303.576C303.576 128.459 303.662 132.068 308.044 132.068C310.622 132.068 312.684 130.693 312.684 127.944C312.684 123.132 299.28 123.046 299.28 114.969C299.28 112.133 300.999 107.579 308.56 107.579C313.372 107.579 317.496 109.899 317.067 115.227H312.255C312.341 112.391 310.794 110.93 308.044 110.93C305.724 110.93 303.92 112.219 303.92 114.539C303.92 119.265 317.324 119.179 317.324 127.342C317.239 133.357 313.2 135.677 307.873 135.677ZM337.431 120.21C337.431 112.821 335.111 111.274 331.76 111.274C328.409 111.274 326.089 112.907 326.089 120.21C326.089 128.975 327.206 132.068 331.76 132.068C336.314 132.068 337.431 128.975 337.431 120.21ZM321.535 122.101C321.535 114.196 322.48 107.751 331.76 107.751C341.126 107.751 341.985 114.281 341.985 122.101C341.985 133.959 337.431 135.677 331.76 135.677C326.003 135.677 321.535 133.959 321.535 122.101ZM360.287 116.859C360.373 112.477 358.225 111.274 356.593 111.274C353.242 111.274 350.922 112.907 350.922 120.21C350.922 128.975 352.039 132.068 356.593 132.068C357.624 132.068 360.631 131.037 360.459 126.139H365.013C365.185 133.701 359.514 135.591 356.507 135.591C350.836 135.591 346.282 133.873 346.282 122.015C346.282 114.11 347.227 107.665 356.507 107.665C361.92 107.665 365.013 110.844 364.756 116.859H360.287ZM370.083 135.161H374.465V108.267H370.083V135.161ZM369.825 101.393H374.723V96.6667H369.825V101.393ZM384.69 127.17C384.69 129.748 385.979 132.154 388.901 132.154C391.565 132.154 394.83 130.521 394.486 121.843C390.276 121.843 384.69 121.413 384.69 127.17ZM394.486 131.295C393.197 134.388 391.049 135.677 387.698 135.677C382.027 135.677 380.308 131.982 380.308 126.827C380.308 118.664 388.299 118.32 394.4 118.492C394.486 114.883 394.572 111.016 389.846 111.016C386.925 111.016 385.378 112.993 385.636 115.828H380.91C381.167 109.813 384.347 107.751 390.018 107.751C396.978 107.751 398.782 111.36 398.782 115.828V128.803C398.782 130.951 399.04 133.099 399.298 135.161H394.486V131.295ZM406.516 108.267V103.111L410.898 101.135V108.267H416.741V111.532H410.898V128.03C410.898 129.748 410.898 131.896 414.936 131.896C415.28 131.896 415.967 131.81 416.913 131.639V134.99C415.452 135.076 414.077 135.419 412.616 135.419C408.492 135.419 406.602 133.701 406.602 130.607V111.446H402.133V108.267H406.516ZM421.209 135.161H425.591V108.267H421.209V135.161ZM420.951 101.393H425.849V96.6667H420.951V101.393ZM445.182 120.21C445.182 112.821 442.862 111.274 439.511 111.274C436.16 111.274 433.84 112.907 433.84 120.21C433.84 128.975 434.957 132.068 439.511 132.068C443.979 132.068 445.182 128.975 445.182 120.21ZM429.286 122.101C429.286 114.196 430.231 107.751 439.511 107.751C448.877 107.751 449.736 114.281 449.736 122.101C449.736 133.959 445.182 135.677 439.511 135.677C433.754 135.677 429.286 133.959 429.286 122.101ZM469.929 135.161V116.516C469.929 113.68 468.898 111.274 465.203 111.274C460.391 111.274 459.704 115.57 459.704 119.179V135.076H455.322V113.766C455.322 111.876 455.236 110.071 455.064 108.181H459.704V111.618H459.876C461.594 108.61 463.57 107.579 467.093 107.579C472.85 107.579 474.311 111.016 474.311 116.344V134.99H469.929V135.161ZM506.276 120.21C506.276 112.821 503.956 111.274 500.604 111.274C497.253 111.274 494.933 112.907 494.933 120.21C494.933 128.975 496.05 132.068 500.604 132.068C505.159 132.068 506.276 128.975 506.276 120.21ZM490.379 122.101C490.379 114.196 491.324 107.751 500.604 107.751C509.884 107.751 510.83 114.281 510.83 122.101C510.83 133.959 506.276 135.677 500.604 135.677C494.933 135.677 490.379 133.959 490.379 122.101ZM517.274 108.267V103.025C517.274 97.6118 521.141 96.4948 525.007 96.4948C525.953 96.4948 526.468 96.5807 527.07 96.6667V99.8459C522.43 99.5022 521.656 101.479 521.656 103.713V108.267H527.07V111.532H521.57V135.161H517.274V111.532H513.15V108.267H517.274ZM264.05 170.907V157.932C264.05 149.855 258.465 149.597 256.919 149.597C255.372 149.597 249.873 149.855 249.873 157.932V170.907C249.873 179.327 252.364 181.476 256.919 181.476C261.559 181.476 264.05 179.327 264.05 170.907ZM244.889 170.649V158.018C244.889 150.37 248.842 145.473 257.005 145.473C265.167 145.473 269.12 150.37 269.12 158.018V170.649C269.12 181.304 265.167 185.514 257.005 185.514C248.756 185.6 244.889 181.304 244.889 170.649ZM277.884 161.884H277.97C279.775 157.76 282.009 157.33 286.305 157.33V161.884C285.532 161.799 284.759 161.627 283.985 161.627C279.173 161.627 277.884 165.321 277.884 168.93V184.741H273.502V157.846H277.884V161.884ZM292.664 157.846V152.69L297.046 150.714V157.846H302.889V161.111H297.046V177.609C297.046 179.327 297.046 181.476 301.084 181.476C301.428 181.476 302.116 181.39 303.061 181.304V184.655C301.6 184.741 300.139 185.084 298.765 185.084C294.64 185.084 292.75 183.366 292.75 180.273V161.111H288.367V157.846H292.664ZM322.136 184.741V166.524C322.136 163.259 321.105 160.853 317.324 160.853C312.942 160.853 311.825 164.376 311.825 168.93V184.741H307.443V146.246H311.825V161.283H311.997C313.716 158.104 315.778 157.33 319.301 157.33C323.855 157.33 326.433 159.65 326.433 165.665V184.741H322.136ZM347.914 169.876C347.914 162.486 345.594 160.939 342.243 160.939C338.892 160.939 336.572 162.572 336.572 169.876C336.572 178.64 337.689 181.733 342.243 181.733C346.797 181.733 347.914 178.554 347.914 169.876ZM332.104 171.68C332.104 163.775 333.049 157.33 342.329 157.33C351.609 157.33 352.554 163.861 352.554 171.68C352.554 183.538 348 185.256 342.329 185.256C336.572 185.256 332.104 183.624 332.104 171.68ZM366.732 160.853C362.006 160.853 361.405 164.548 361.405 171.766C361.405 175.804 361.404 181.647 366.904 181.647C371.802 181.647 371.802 175.547 371.802 170.133C371.802 166.61 371.63 160.853 366.732 160.853ZM371.802 146.246H376.184V184.741H371.802V181.561H371.716C370.255 184.053 368.364 185.256 365.529 185.256C361.233 185.256 356.85 183.538 356.85 171.68C356.85 164.978 357.022 157.244 365.787 157.244C368.365 157.244 370.169 158.361 371.716 160.51H371.887V146.246H371.802ZM397.493 169.876C397.493 162.486 395.173 160.939 391.822 160.939C388.471 160.939 386.151 162.572 386.151 169.876C386.151 178.64 387.268 181.733 391.822 181.733C396.376 181.733 397.493 178.554 397.493 169.876ZM381.597 171.68C381.597 163.775 382.542 157.33 391.822 157.33C401.188 157.33 402.047 163.861 402.047 171.68C402.047 183.538 397.493 185.256 391.822 185.256C386.151 185.256 381.597 183.624 381.597 171.68ZM422.326 184.741V166.095C422.326 163.173 421.295 160.853 417.6 160.853C412.788 160.853 412.101 165.15 412.101 168.759V184.741H407.719V163.431C407.719 161.541 407.633 159.736 407.461 157.846H412.101V161.283H412.273C413.991 158.276 415.967 157.33 419.49 157.33C425.247 157.33 426.708 160.767 426.708 166.095V184.741H422.326ZM433.496 157.846V152.69L437.879 150.714V157.846H443.722V161.111H437.879V177.609C437.879 179.327 437.879 181.476 441.917 181.476C442.261 181.476 442.948 181.39 443.893 181.304V184.655C442.433 184.741 441.058 185.084 439.597 185.084C435.473 185.084 433.582 183.366 433.582 180.273V161.111H429.2V157.846H433.496ZM448.19 184.741H452.572V157.846H448.19V184.741ZM447.932 150.972H452.83V146.246H447.932V150.972ZM464.945 185.256C459.102 185.256 455.493 182.679 455.665 176.492H460.649C460.649 178.039 460.735 181.647 465.117 181.647C467.695 181.647 469.757 180.359 469.757 177.523C469.757 172.711 456.353 172.625 456.353 164.548C456.353 161.713 458.071 157.159 465.633 157.159C470.445 157.159 474.569 159.479 474.139 164.806H469.327C469.413 161.97 467.867 160.51 465.117 160.51C462.797 160.51 460.993 161.799 460.993 164.119C460.993 168.844 474.397 168.759 474.397 176.921C474.311 183.022 470.273 185.256 464.945 185.256ZM479.81 157.846V152.69L484.193 150.714V157.846H490.036V161.111H484.193V177.609C484.193 179.327 484.193 181.476 488.145 181.476C488.489 181.476 489.176 181.39 490.122 181.304V184.655C488.661 184.741 487.2 185.084 485.825 185.084C481.701 185.084 479.81 183.366 479.81 180.273V161.111H475.342V157.846H479.81ZM500.69 185.256C494.847 185.256 491.239 182.679 491.41 176.492H496.394C496.394 178.039 496.48 181.647 500.862 181.647C503.44 181.647 505.502 180.359 505.502 177.523C505.502 172.711 492.098 172.625 492.098 164.548C492.098 161.713 493.816 157.159 501.378 157.159C506.19 157.159 510.314 159.479 509.885 164.806H505.073C505.159 161.97 503.612 160.51 500.862 160.51C498.542 160.51 496.738 161.799 496.738 164.119C496.738 168.844 510.142 168.759 510.142 176.921C510.142 183.022 506.018 185.256 500.69 185.256Z" fill="#005596"/>
<path d="M524.578 187.318H526.554C527.5 187.318 527.929 186.631 527.929 185.772C527.929 185.084 527.586 184.311 526.554 184.311H524.578V187.318ZM524.578 192.732H523.032V183.366H526.726C528.531 183.366 529.39 184.569 529.39 185.686C529.39 186.803 528.531 187.662 527.328 187.834V187.92C528.531 188.092 528.874 188.435 528.96 190.326C528.96 190.755 529.132 192.216 529.304 192.732H527.843C527.5 192.044 527.586 190.841 527.414 189.638C527.328 188.607 526.469 188.607 526.039 188.607H524.492V192.732H524.578ZM519.165 188.006C519.165 191.872 522.258 194.966 526.125 194.966C529.992 194.966 532.999 191.872 532.999 188.006C532.999 184.139 529.906 181.046 526.125 181.046C522.258 181.046 519.165 184.139 519.165 188.006ZM534.202 188.006C534.202 192.56 530.593 196.169 526.039 196.169C521.571 196.169 517.876 192.56 517.876 188.006C517.876 183.538 521.571 179.843 526.039 179.843C530.593 179.843 534.202 183.452 534.202 188.006Z" fill="#005596"/>
</svg>
