<svg width="652" height="232" viewBox="0 0 652 232" fill="none" xmlns="http://www.w3.org/2000/svg">
<path d="M100.4 131.1C100.4 131.1 99.7003 158.2 138.2 168.9C127 130.4 100.4 131.1 100.4 131.1Z" fill="#1C6CA2"/>
<path d="M78.5002 109.4C78.5002 109.4 79.2002 82.4001 40.7002 71.6001C51.9002 110.1 78.5002 109.4 78.5002 109.4Z" fill="#1C6CA2"/>
<path d="M89.5002 137.3C89.5002 137.3 69.9002 155.9 89.5002 190.7C108.9 155.7 89.5002 137.3 89.5002 137.3Z" fill="#1C6CA2"/>
<path d="M89.4001 106.5C89.4001 106.5 109 87.9001 89.4001 53.1001C70.0001 88.2001 89.4001 106.5 89.4001 106.5Z" fill="#1C6CA2"/>
<path d="M104.9 121.8C104.9 121.8 123.5 141.4 158.3 121.8C123.2 102.5 104.9 121.8 104.9 121.8Z" fill="#1C6CA2"/>
<path d="M74.0001 122C74.0001 122 55.4001 102.4 20.6001 122C55.7001 141.3 74.0001 122 74.0001 122Z" fill="#1C6CA2"/>
<path d="M100.3 109.3C100.3 109.3 127.3 110 138.1 71.5C99.6002 82.6 100.3 109.3 100.3 109.3Z" fill="#1C6CA2"/>
<path d="M78.6003 131.2C78.6003 131.2 51.5003 130.5 40.8003 169C79.3003 157.8 78.6003 131.2 78.6003 131.2Z" fill="#1C6CA2"/>
<path d="M130.2 150.5C117.7 130.6 100.4 131 100.4 131C100.4 131 99.9 148.7 120.1 161.1C124 158.2 127.4 154.6 130.2 150.5Z" fill="#2180B3"/>
<path d="M78.4999 109.4C78.4999 109.4 78.8999 93.1999 61.2999 80.8999C56.9999 83.8999 53.0999 87.5999 49.8999 91.6999C62.2999 109.8 78.4999 109.4 78.4999 109.4Z" fill="#2180B3"/>
<path d="M89.4999 137.3C89.4999 137.3 77.1999 149 81.7999 171.1C84.2999 171.5 86.7999 171.7 89.3999 171.7C91.9999 171.7 94.4999 171.5 96.9999 171.1C101.7 148.9 89.4999 137.3 89.4999 137.3Z" fill="#2180B3"/>
<path d="M89.4001 106.5C89.4001 106.5 101.7 94.8001 97.1001 72.7001C94.6001 72.3001 92.1001 72.1001 89.5001 72.1001C86.9001 72.1001 84.4001 72.3001 81.9001 72.7001C77.2001 94.9001 89.4001 106.5 89.4001 106.5Z" fill="#2180B3"/>
<path d="M104.9 121.8C104.9 121.8 116.6 134.1 138.7 129.5C139.1 127 139.3 124.5 139.3 121.9C139.3 119.3 139.1 116.8 138.7 114.3C116.4 109.7 104.9 121.8 104.9 121.8Z" fill="#2180B3"/>
<path d="M74.0001 122C74.0001 122 62.3001 109.7 40.2001 114.3C39.8001 116.8 39.6001 119.3 39.6001 121.9C39.6001 124.5 39.8001 127 40.2001 129.5C62.5001 134.1 74.0001 122 74.0001 122Z" fill="#2180B3"/>
<path d="M100.3 109.3C100.3 109.3 116.7 109.7 129 91.6999C125.8 87.4999 122 83.7999 117.6 80.8999C99.9001 93.1999 100.3 109.3 100.3 109.3Z" fill="#2180B3"/>
<path d="M78.6002 131.2C78.6002 131.2 61.1002 130.7 48.7002 150.5C51.5002 154.5 55.0002 158.1 58.8002 161.2C79.1002 148.6 78.6002 131.2 78.6002 131.2Z" fill="#2180B3"/>
<path d="M118.8 137.9C109.2 130.8 100.5 131.1 100.5 131.1C100.5 131.1 100.3 140.2 107.6 150C112.2 147 116.1 142.8 118.8 137.9Z" fill="#299FC0"/>
<path d="M78.5001 109.4C78.5001 109.4 78.7001 101.7 73.0001 92.8999C68.4001 95.4999 64.5001 99.1999 61.6001 103.6C70.6001 109.6 78.5001 109.4 78.5001 109.4Z" fill="#299FC0"/>
<path d="M89.4999 137.3C89.4999 137.3 83.3999 143.1 81.3999 154.3C83.9999 154.9 86.5999 155.3 89.3999 155.3C92.1999 155.3 94.8999 154.9 97.4999 154.3C95.5999 143.1 89.4999 137.3 89.4999 137.3Z" fill="#299FC0"/>
<path d="M89.3999 106.5C89.3999 106.5 95.4999 100.7 97.4999 89.5C94.8999 88.9 92.1999 88.5 89.4999 88.5C86.6999 88.5 83.9999 88.9 81.3999 89.5C83.2999 100.7 89.3999 106.5 89.3999 106.5Z" fill="#299FC0"/>
<path d="M121.8 113.8C110.6 115.7 104.9 121.8 104.9 121.8C104.9 121.8 110.7 127.9 121.9 129.9C122.5 127.3 122.9 124.7 122.9 121.9C122.9 119.1 122.5 116.4 121.8 113.8Z" fill="#299FC0"/>
<path d="M74 122C74 122 68.2 115.9 57 113.9C56.4 116.5 56 119.1 56 121.9C56 124.7 56.4 127.4 57 130C68.3 128 74 122 74 122Z" fill="#299FC0"/>
<path d="M105.9 92.8003C100.2 101.6 100.4 109.2 100.4 109.2C100.4 109.2 108.4 109.4 117.4 103.4C114.4 99.1003 110.5 95.4003 105.9 92.8003Z" fill="#299FC0"/>
<path d="M78.6002 131.2C78.6002 131.2 69.8002 131 60.2002 138C62.9002 142.9 66.8002 147 71.4002 150C78.8002 140.2 78.6002 131.2 78.6002 131.2Z" fill="#299FC0"/>
<path d="M381.6 119.4C381.6 123.9 383.1 127.6 386 130.7C389 133.7 392.6 135.3 396.9 135.3C400.8 135.3 404.3 133.8 407.3 130.7C410.3 127.6 411.8 124.1 411.8 120C411.8 115.7 410.3 111.9 407.3 108.8C404.3 105.7 400.8 104.1 396.7 104.1C392.5 104.1 388.9 105.6 386 108.5C383.1 111.5 381.6 115.1 381.6 119.4ZM412.4 144.9V137.5C410.2 139.8 407.8 141.5 405.1 142.6C402.4 143.8 399.6 144.3 396.5 144.3C389.4 144.3 383.5 141.9 378.8 137.2C374.1 132.5 371.8 126.5 371.8 119.4C371.8 116.1 372.4 112.9 373.6 109.9C374.8 106.9 376.4 104.3 378.6 102C381 99.5002 383.6 97.7002 386.4 96.5002C389.2 95.3002 392.4 94.7002 396 94.7002C399.2 94.7002 402.2 95.3002 404.9 96.4002C407.6 97.6002 410.1 99.3002 412.3 101.6V95.9002H421.7V144.7H412.4" fill="#1E68A1"/>
<path d="M487 119.4C487 123.9 488.5 127.6 491.4 130.7C494.4 133.7 498 135.3 502.3 135.3C506.2 135.3 509.7 133.8 512.7 130.7C515.7 127.6 517.2 124.1 517.2 120C517.2 115.7 515.7 111.9 512.7 108.8C509.7 105.7 506.2 104.1 502.1 104.1C497.9 104.1 494.3 105.6 491.4 108.5C488.4 111.5 487 115.1 487 119.4ZM512.1 166.1C501.8 170.9 485.3 163.1 485.3 163.1L489.3 154C489.3 154 497.2 159.3 508.2 156.6C518.7 152.4 517.8 143.3 517.8 143.3V137.5C515.6 139.8 513.2 141.5 510.5 142.6C507.8 143.8 505 144.3 501.9 144.3C494.8 144.3 488.9 141.9 484.2 137.2C479.5 132.5 477.2 126.5 477.2 119.4C477.2 116.1 477.8 112.9 479 109.9C480.2 106.9 481.8 104.3 484 102C486.4 99.5002 489 97.7002 491.8 96.5002C494.6 95.3002 497.8 94.7002 501.4 94.7002C504.6 94.7002 507.6 95.3002 510.3 96.4002C513 97.5002 515.5 99.3002 517.7 101.6V95.9002H527.1V143.1C527.1 153.1 522.4 161.2 512.1 166.1Z" fill="#1E68A1"/>
<path d="M549.4 144.8H540.4V95.6999H548.7V101.1C550.5 98.9999 552.7 97.3999 554.8 96.3999C556.9 95.3999 559.4 94.8999 562.1 94.8999C568.3 94.8999 573.1 96.6999 576.4 100.4C579.7 104.1 581.4 109.3 581.4 116.1V144.8H572.2V118C572.2 113 571.3 109.2 569.4 106.8C567.5 104.4 564.7 103.1 560.8 103.1C556.6 103.1 554.2 104.5 552.3 107.4C550.4 110.3 549.4 115 549.4 121.6V144.8Z" fill="#1E68A1"/>
<path d="M224.2 144.8H215.2V95.6999H223.5V101.1C225.3 98.9999 227.5 97.3999 229.6 96.3999C231.7 95.3999 234.2 94.8999 236.9 94.8999C243.1 94.8999 247.9 96.6999 251.2 100.4C254.5 104.1 256.2 109.3 256.2 116.1V144.8H247V118C247 113 246.1 109.2 244.2 106.8C242.3 104.4 239.5 103.1 235.6 103.1C231.4 103.1 229 104.5 227.1 107.4C225.2 110.3 224.2 115 224.2 121.6V144.8Z" fill="#299FC0"/>
<path d="M469.6 95.5H459.3V144.8H469.6V95.5Z" fill="#1E68A1"/>
<path d="M457.3 80.0999C457.3 76.0999 460.5 72.8999 464.5 72.8999C468.4 72.8999 471.7 76.0999 471.7 80.0999C471.7 84.0999 468.5 87.2999 464.5 87.2999C460.5 87.2999 457.3 84.0999 457.3 80.0999Z" fill="#1E68A1"/>
<path d="M445.5 73.5H435.2V144.8H445.5V73.5Z" fill="#1E68A1"/>
<path d="M323.3 95.5H313V144.8H323.3V95.5Z" fill="#299FC0"/>
<path d="M311 80.0999C311 76.0999 314.2 72.8999 318.2 72.8999C322.2 72.8999 325.4 76.0999 325.4 80.0999C325.4 84.0999 322.2 87.2999 318.2 87.2999C314.2 87.2999 311 84.0999 311 80.0999Z" fill="#299FC0"/>
<path d="M201.4 95.5H191.1V144.8H201.4V95.5Z" fill="#299FC0"/>
<path d="M189 80.0999C189 76.0999 192.2 72.8999 196.2 72.8999C200.1 72.8999 203.4 76.0999 203.4 80.0999C203.4 84.0999 200.2 87.2999 196.2 87.2999C192.2 87.2999 189 84.0999 189 80.0999Z" fill="#299FC0"/>
<path d="M259.2 95.5H270.9L283.3 122.5L296.8 95.5H308.5L283.1 144.8L259.2 95.5Z" fill="#299FC0"/>
<path d="M351 115.7C347.3 114.5 342.5 112.6 342.5 109.8C342.5 106.7 344.6 104.9 348.7 104.3C352.2 103.8 356.5 105.9 357.5 106.9L362.5 99.1001C358.9 96.8001 353 94.6001 347.2 95.4001C338.2 96.6001 332.6 102.2 332.6 109.8C332.6 119.4 344 123 347.7 124.2C353.6 126.1 355.7 127.7 355.7 130.3C355.7 135.3 349.1 135.7 347.1 135.7C343.3 135.7 338 133.3 336.2 132.4L331.3 140.2C332.2 140.7 340 144.8 347.1 144.8C355.9 144.8 365.5 140.3 365.5 130.4C365.6 120.4 355 117 351 115.7Z" fill="#299FC0"/>
<path d="M618.7 105.7C618.7 110.5 614.8 114.4 610 114.4C605.2 114.4 601.3 110.5 601.3 105.7C601.3 100.9 605.2 97.0001 610 97.0001C614.8 97.0001 618.7 100.9 618.7 105.7ZM610 95.1001C604.2 95.1001 599.4 99.8001 599.4 105.7C599.4 111.5 604.1 116.3 610 116.3C615.8 116.3 620.6 111.6 620.6 105.7C620.6 99.8001 615.8 95.1001 610 95.1001Z" fill="#1C6CA2"/>
<path d="M607.6 105H609.3C611.1 105 612.2 104.2 612.2 103C612.2 101.7 611 101.1 609.2 101.1C608.4 101.1 607.8 101.2 607.6 101.2V105ZM605.9 100.3C606.7 100.2 608 100.1 609.1 100.1C610.9 100.1 612 100.4 612.8 101C613.4 101.4 613.8 102.2 613.8 103C613.8 104.4 612.7 105.3 611.4 105.7C612.4 106 613 106.7 613.3 107.8C613.7 109.3 614 110.3 614.3 110.7H612.6C612.4 110.4 612.1 109.5 611.8 108.2C611.4 106.8 610.7 106.2 609.2 106.2H607.6V110.7H605.9V100.3Z" fill="#1C6CA2"/>
</svg>
