<svg width="645" height="232" viewBox="0 0 645 232" fill="none" xmlns="http://www.w3.org/2000/svg">
<g clip-path="url(#clip0_228_1940)">
<path d="M117.109 134.925C114.092 140.747 109.554 145.643 103.976 149.093C98.2683 152.575 91.6936 154.375 85.0079 154.287C78.3221 154.376 71.7472 152.575 66.0393 149.093C60.4618 145.644 55.9235 140.748 52.9073 134.925C49.6884 128.749 48.0539 121.87 48.1505 114.906C48.0545 107.942 49.6889 101.063 52.9073 94.8866C55.9247 89.0645 60.4627 84.1685 66.0393 80.7185C71.7478 77.2374 78.3223 75.437 85.0079 75.524C91.6935 75.437 98.268 77.2374 103.976 80.7185C109.552 84.1696 114.09 89.0653 117.109 94.8866C120.326 101.063 121.961 107.942 121.865 114.906C121.962 121.87 120.327 128.749 117.109 134.925ZM107.332 100.066C105.293 95.8301 102.128 92.236 98.1837 89.6775C94.2233 87.1447 89.6063 85.8306 84.9058 85.8984C80.1716 85.795 75.5106 87.0782 71.4964 89.5899C67.5499 92.1229 64.387 95.7052 62.3624 99.9351C60.1237 104.593 59.0045 109.709 59.0939 114.876C59.0175 120.006 60.1418 125.083 62.377 129.701C64.4065 133.947 67.5669 137.552 71.511 140.119C75.506 142.586 80.1085 143.892 84.8036 143.892C89.4987 143.892 94.1013 142.586 98.0962 140.119C102.036 137.56 105.196 133.966 107.23 129.73C109.464 125.112 110.589 120.035 110.513 114.906C110.618 109.778 109.524 104.697 107.318 100.066H107.332ZM195.755 146.364C196.164 147.079 196.397 147.882 196.397 148.713C196.448 149.354 196.342 149.997 196.088 150.587C195.834 151.177 195.439 151.696 194.938 152.099C193.903 152.842 192.652 153.227 191.378 153.193C190.151 153.236 188.938 152.932 187.876 152.317C185.521 150.901 183.649 148.805 182.506 146.306C181.12 143.534 180.42 139.448 180.42 134.049C180.42 130.402 179.325 127.702 177.137 125.951C174.681 124.114 171.664 123.186 168.601 123.325H146.495V147.955C146.55 149.335 146.081 150.685 145.182 151.734C144.758 152.209 144.235 152.585 143.65 152.837C143.066 153.089 142.433 153.211 141.797 153.193C140.198 153.243 138.638 152.697 137.419 151.661C136.878 151.209 136.445 150.642 136.152 150C135.859 149.359 135.714 148.66 135.727 147.955V81.8566C135.725 81.1663 135.86 80.4823 136.123 79.8442C136.386 79.206 136.773 78.6262 137.261 78.138C137.749 77.6499 138.329 77.263 138.967 76.9997C139.605 76.7364 140.289 76.6019 140.98 76.6038H171.723C175.535 76.5737 179.283 77.5826 182.565 79.522C185.842 81.4498 188.558 84.2013 190.444 87.5034C192.424 90.9862 193.432 94.9371 193.362 98.9429C193.336 102.923 192.238 106.823 190.184 110.233C188.13 113.642 185.196 116.436 181.689 118.32C184.316 119.633 186.533 121.676 188.109 124.156C189.709 126.765 190.59 129.75 190.663 132.809C190.809 135.654 191.13 138.5 191.655 141.287C191.793 141.968 192.081 142.611 192.497 143.169C192.913 143.726 193.448 144.185 194.062 144.511C194.753 145.001 195.33 145.633 195.755 146.364ZM176.553 112.06C178.286 110.63 179.656 108.81 180.551 106.749C181.575 104.385 182.073 101.825 182.01 99.2493C182.097 95.98 180.951 92.7977 178.8 90.3341C177.862 89.1969 176.686 88.2795 175.355 87.6466C174.024 87.0138 172.57 86.681 171.096 86.6717H146.495V114.249H171.446C173.339 114.053 175.13 113.29 176.582 112.06H176.553ZM261.868 77.917C262.359 78.3877 262.743 78.9581 262.995 79.5899C263.246 80.2217 263.36 80.9001 263.327 81.5794C263.363 82.2504 263.251 82.921 262.999 83.5439C262.746 84.1667 262.36 84.7264 261.868 85.1834C260.819 86.0825 259.469 86.5516 258.089 86.4966H238.624V147.955C238.634 148.652 238.498 149.343 238.224 149.984C237.95 150.625 237.544 151.201 237.034 151.675C235.937 152.665 234.513 153.213 233.036 153.213C231.559 153.213 230.134 152.665 229.038 151.675C228.529 151.201 228.125 150.624 227.854 149.983C227.582 149.342 227.449 148.651 227.462 147.955V86.555H208.085C206.693 86.6209 205.331 86.139 204.291 85.2126C203.8 84.7419 203.416 84.1715 203.164 83.5397C202.912 82.9079 202.799 82.2295 202.832 81.5502C202.795 80.8747 202.906 80.1993 203.158 79.5716C203.41 78.9439 203.797 78.379 204.291 77.917C205.32 76.9886 206.67 76.4967 208.055 76.5454H258.059C259.459 76.4867 260.827 76.9792 261.868 77.917ZM335.028 78.0775C335.534 78.5651 335.931 79.1535 336.195 79.8045C336.459 80.4554 336.583 81.1546 336.56 81.8566V147.838C336.531 149.28 335.945 150.655 334.926 151.675C334.409 152.186 333.792 152.586 333.115 152.849C332.437 153.113 331.713 153.235 330.986 153.208C330.286 153.218 329.591 153.088 328.941 152.824C328.292 152.561 327.703 152.171 327.207 151.675C326.69 151.185 326.281 150.591 326.007 149.932C325.733 149.274 325.6 148.566 325.617 147.853V119.502H286.76V147.838C286.779 148.557 286.643 149.272 286.361 149.935C286.079 150.597 285.658 151.19 285.126 151.675C284.106 152.665 282.739 153.215 281.318 153.208C280.6 153.237 279.884 153.116 279.215 152.852C278.547 152.588 277.941 152.187 277.437 151.675C276.952 151.167 276.573 150.567 276.323 149.911C276.072 149.254 275.955 148.555 275.977 147.853V81.8566C275.965 81.1646 276.094 80.4775 276.358 79.8375C276.621 79.1975 277.013 78.6184 277.51 78.1359C278.033 77.6389 278.653 77.2534 279.33 77.0026C280.007 76.7518 280.728 76.641 281.449 76.6767C282.147 76.6557 282.841 76.774 283.493 77.0245C284.144 77.275 284.739 77.6528 285.243 78.1359C285.75 78.6119 286.153 79.1888 286.424 79.8296C286.696 80.4704 286.83 81.1608 286.819 81.8566V109.434H325.675V81.8566C325.667 81.1545 325.811 80.459 326.095 79.8171C326.38 79.1751 326.799 78.6018 327.324 78.1359C328.394 77.1801 329.778 76.6518 331.212 76.6518C332.647 76.6518 334.031 77.1801 335.101 78.1359L335.043 78.0775H335.028ZM419.453 134.925C416.436 140.747 411.898 145.643 406.321 149.093C400.552 152.495 393.977 154.289 387.279 154.289C380.582 154.289 374.007 152.495 368.238 149.093C362.66 145.644 358.122 140.748 355.105 134.925C351.831 128.763 350.141 121.883 350.188 114.906C350.092 107.942 351.727 101.063 354.945 94.8866C357.962 89.0645 362.5 84.1685 368.077 80.7185C373.847 77.3178 380.421 75.5243 387.119 75.5243C393.816 75.5243 400.391 77.3178 406.16 80.7185C411.736 84.1696 416.274 89.0653 419.292 94.8866C422.51 101.063 424.144 107.942 424.049 114.906C424.195 121.851 422.619 128.738 419.453 134.925ZM409.677 100.066C407.637 95.8301 404.472 92.236 400.528 89.6775C396.567 87.1447 391.95 85.8306 387.25 85.8984C382.545 85.8112 377.917 87.0938 373.928 89.5899C369.972 92.1282 366.803 95.7214 364.779 99.9643C362.536 104.621 361.412 109.737 361.496 114.906C361.42 120.036 362.544 125.112 364.779 129.73C366.811 133.971 369.971 137.571 373.914 140.134C377.91 142.603 382.515 143.911 387.213 143.911C391.911 143.911 396.517 142.603 400.513 140.134C404.453 137.574 407.613 133.98 409.647 129.745C411.884 125.122 413.008 120.04 412.93 114.906C413.012 109.772 411.893 104.691 409.662 100.066H409.677ZM443.382 155.031C442.43 155.055 441.483 154.883 440.6 154.527C439.716 154.171 438.915 153.637 438.246 152.96C437.578 152.31 437.05 151.531 436.694 150.671C436.338 149.81 436.161 148.886 436.174 147.955V81.8566C436.172 80.9243 436.355 80.0008 436.712 79.1394C437.068 78.278 437.592 77.4958 438.253 76.8379C438.914 76.18 439.698 75.6594 440.561 75.3062C441.424 74.953 442.348 74.7741 443.28 74.7799H480.604C481.529 74.7534 482.45 74.9099 483.314 75.2404C484.177 75.5709 484.968 76.069 485.638 76.7059C486.311 77.3563 486.84 78.1401 487.192 79.007C487.544 79.8739 487.71 80.8048 487.681 81.7399C487.683 82.6342 487.498 83.5191 487.139 84.3381C486.78 85.1572 486.254 85.8923 485.595 86.4966C484.936 87.1414 484.155 87.6488 483.299 87.9895C482.442 88.3301 481.526 88.4972 480.604 88.481H450.576V107.45H475.702C476.626 107.423 477.547 107.58 478.411 107.91C479.275 108.241 480.065 108.739 480.736 109.376C481.408 110.026 481.937 110.81 482.289 111.677C482.641 112.544 482.808 113.474 482.778 114.41C482.782 115.294 482.602 116.169 482.25 116.98C481.899 117.791 481.383 118.52 480.736 119.123C480.07 119.77 479.282 120.279 478.418 120.619C477.554 120.96 476.63 121.126 475.702 121.107H450.605V147.955C450.618 148.897 450.434 149.832 450.065 150.699C449.695 151.566 449.149 152.346 448.46 152.989C447.795 153.649 447.004 154.171 446.135 154.521C445.265 154.872 444.334 155.046 443.397 155.031H443.382ZM443.251 78.4277C442.8 78.4258 442.353 78.5131 441.936 78.6848C441.52 78.8564 441.141 79.1089 440.822 79.4277C440.503 79.7465 440.251 80.1253 440.079 80.5421C439.907 80.959 439.82 81.4058 439.822 81.8566V147.955C439.793 148.874 440.158 149.764 440.814 150.391C441.485 151.063 442.419 151.413 443.353 151.384C443.819 151.394 444.282 151.308 444.714 151.133C445.145 150.957 445.536 150.695 445.863 150.362C446.197 150.058 446.463 149.686 446.641 149.271C446.82 148.855 446.908 148.407 446.899 147.955V117.459H475.673C476.131 117.483 476.59 117.414 477.021 117.256C477.453 117.098 477.848 116.855 478.182 116.54C478.474 116.28 478.707 115.961 478.866 115.603C479.024 115.246 479.105 114.859 479.101 114.468C479.128 114.024 479.06 113.58 478.902 113.165C478.743 112.75 478.498 112.373 478.182 112.06C477.848 111.746 477.453 111.502 477.021 111.344C476.59 111.186 476.131 111.117 475.673 111.141H446.928V84.877H480.604C481.057 84.8918 481.508 84.814 481.929 84.6484C482.351 84.4828 482.734 84.2329 483.056 83.914C483.361 83.6493 483.607 83.3222 483.775 82.9548C483.944 82.5873 484.032 82.188 484.033 81.7837C484.06 81.3401 483.992 80.8958 483.834 80.4806C483.675 80.0654 483.43 79.6889 483.114 79.3761C482.78 79.0613 482.385 78.8175 481.953 78.6595C481.522 78.5015 481.063 78.4326 480.604 78.4569L443.251 78.4277ZM549.84 155.469C548.712 155.503 547.593 155.253 546.586 154.744C545.58 154.234 544.717 153.48 544.076 152.551L524.407 126.068L505.059 152.42C504.43 153.362 503.577 154.134 502.576 154.666C501.575 155.198 500.458 155.474 499.325 155.469C498.46 155.481 497.602 155.318 496.802 154.99C496.002 154.661 495.277 154.174 494.67 153.558C494.075 152.994 493.6 152.316 493.274 151.563C492.948 150.811 492.778 150 492.773 149.18C492.801 147.472 493.39 145.821 494.451 144.482L516.076 115.052L494.335 85.8692C493.382 84.6543 492.867 83.1527 492.876 81.6086C492.847 80.6457 493.026 79.688 493.398 78.7996C493.771 77.9113 494.329 77.1128 495.035 76.4579C495.68 75.807 496.449 75.2911 497.295 74.9404C498.142 74.5896 499.05 74.4111 499.967 74.4151C501.054 74.4215 502.126 74.6708 503.104 75.1447C504.16 75.6521 505.066 76.4267 505.73 77.3917L525.253 103.656L544.587 77.7127C545.206 76.7806 546.039 76.0097 547.016 75.4641C547.993 74.9185 549.086 74.6139 550.204 74.5756C551.09 74.5699 551.968 74.7457 552.784 75.0919C553.599 75.4382 554.335 75.9478 554.946 76.5892C555.579 77.1827 556.084 77.899 556.43 78.6943C556.776 79.4896 556.957 80.3472 556.96 81.2146C556.935 82.7442 556.424 84.2261 555.501 85.446L533.541 114.789L555.428 144.219C556.333 145.46 556.814 146.948 556.77 148.48C556.793 149.434 556.609 150.382 556.231 151.258C555.853 152.135 555.291 152.919 554.582 153.558C553.306 154.764 551.624 155.447 549.869 155.469H549.84ZM524.334 119.925L547.038 150.348C547.333 150.818 547.748 151.201 548.241 151.458C548.733 151.714 549.285 151.835 549.84 151.807C550.713 151.8 551.55 151.455 552.174 150.844C552.506 150.55 552.766 150.184 552.936 149.775C553.105 149.365 553.179 148.922 553.152 148.48C553.181 147.734 552.96 147 552.524 146.393L528.96 114.789L552.539 83.272C553.006 82.6737 553.268 81.9442 553.268 81.1854C553.26 80.7978 553.172 80.4162 553.009 80.0645C552.845 79.7129 552.611 79.399 552.32 79.1427C552.046 78.843 551.712 78.6039 551.34 78.4406C550.969 78.2772 550.567 78.1933 550.161 78.1942C549.81 78.1942 548.701 78.1942 547.447 79.8868L525.283 109.74L502.812 79.5366C502.502 79.0728 502.074 78.7001 501.572 78.4569C500.929 78.1204 500.194 78.0025 499.478 78.121C498.762 78.2395 498.104 78.5878 497.603 79.1135C497.27 79.4183 497.007 79.791 496.831 80.2063C496.655 80.6217 496.57 81.07 496.582 81.521C496.567 82.2652 496.815 82.9947 497.282 83.5784L520.628 114.993L497.355 146.627C496.764 147.339 496.425 148.226 496.392 149.151C496.407 149.852 496.713 150.508 497.224 150.975C497.764 151.53 498.508 151.836 499.267 151.807C499.824 151.814 500.374 151.677 500.862 151.408C501.35 151.14 501.761 150.749 502.053 150.275L524.334 119.925ZM579.518 74.7361C579.722 74.9258 579.824 75.1884 579.81 75.4657C579.816 75.5989 579.793 75.7318 579.743 75.8553C579.692 75.9787 579.616 76.0898 579.518 76.1806C579.308 76.3612 579.036 76.455 578.759 76.4433H574.907V88.7291C574.909 88.8687 574.881 89.0072 574.826 89.1354C574.771 89.2636 574.689 89.3788 574.586 89.4732C574.366 89.6721 574.08 89.7823 573.784 89.7823C573.487 89.7823 573.201 89.6721 572.981 89.4732C572.878 89.3788 572.797 89.2636 572.741 89.1354C572.686 89.0072 572.658 88.8687 572.66 88.7291V76.4579H568.779C568.499 76.4687 568.227 76.3691 568.02 76.1806C567.922 76.0869 567.846 75.9734 567.795 75.8475C567.745 75.7217 567.722 75.5865 567.728 75.4511C567.722 75.3179 567.745 75.1849 567.796 75.0615C567.846 74.938 567.923 74.827 568.02 74.7361C568.227 74.5477 568.499 74.4481 568.779 74.4589H578.774C579.048 74.4519 579.315 74.5512 579.518 74.7361ZM596.385 74.7653C596.59 74.955 596.706 75.2176 596.692 75.4949V88.7437C596.696 88.8853 596.671 89.0262 596.618 89.1576C596.565 89.2889 596.485 89.4078 596.383 89.5066C596.282 89.6054 596.161 89.682 596.028 89.7315C595.895 89.781 595.754 89.8024 595.612 89.7942C595.468 89.7999 595.324 89.777 595.189 89.7269C595.054 89.6769 594.93 89.6006 594.824 89.5024C594.726 89.4032 594.649 89.2844 594.598 89.1538C594.548 89.0232 594.526 88.8835 594.532 88.7437V78.6028L590.272 85.0375C590.167 85.1679 590.038 85.2769 589.892 85.3585C589.753 85.4461 589.59 85.487 589.425 85.4752C589.271 85.4828 589.118 85.442 588.988 85.3585C588.836 85.2798 588.702 85.1705 588.594 85.0375L584.333 78.4131V88.7437C584.344 89.0232 584.244 89.2957 584.056 89.5024C583.962 89.6004 583.849 89.6771 583.723 89.7274C583.597 89.7778 583.462 89.8005 583.326 89.7942C583.193 89.8004 583.06 89.7774 582.937 89.727C582.813 89.6766 582.702 89.6 582.611 89.5024C582.423 89.2957 582.323 89.0232 582.334 88.7437V75.4949C582.336 75.355 582.365 75.2168 582.421 75.0883C582.476 74.9598 582.556 74.8435 582.656 74.7459C582.757 74.6484 582.875 74.5715 583.005 74.5198C583.135 74.468 583.274 74.4424 583.414 74.4443C583.592 74.4458 583.768 74.4909 583.925 74.5756C584.087 74.657 584.228 74.7773 584.333 74.9258L589.498 82.7905L594.751 74.9404C594.846 74.7938 594.975 74.673 595.128 74.5889C595.281 74.5048 595.452 74.4601 595.627 74.4589C595.909 74.462 596.18 74.5714 596.385 74.7653Z" fill="black"/>
</g>
<defs>
<clipPath id="clip0_228_1940">
<rect width="549.14" height="82.3673" fill="white" transform="translate(48.1509 74.415)"/>
</clipPath>
</defs>
</svg>
